<svg xmlns="http://www.w3.org/2000/svg" viewBox="0 0 96 96">
  <rect width="96" height="96" rx="16" fill="#2496ED"/>
  <g fill="#fff">
    <rect x="21" y="43" width="10" height="9" rx="1"/>
    <rect x="33" y="43" width="10" height="9" rx="1"/>
    <rect x="45" y="43" width="10" height="9" rx="1"/>
    <rect x="33" y="32" width="10" height="9" rx="1"/>
    <rect x="45" y="32" width="10" height="9" rx="1"/>
    <rect x="57" y="43" width="10" height="9" rx="1"/>
    <path d="M18 55h58c-2 12-12 19-29 19-15 0-25-6-29-19Z"/>
    <path d="M71 47c5-1 8 1 10 5-3 2-7 2-11 1l1-6Z"/>
  </g>
</svg>
