<svg xmlns="http://www.w3.org/2000/svg" viewBox="0 0 96 96">
  <rect width="96" height="96" rx="16" fill="#fff"/>
  <path d="M36 66h30c8 0 14-6 14-14s-6-14-14-14h-2C61 28 52 22 42 25c-8 2-14 9-15 17-7 2-11 7-11 13 0 6 5 11 12 11h8Z" fill="none" stroke="#4285F4" stroke-width="8" stroke-linecap="round"/>
  <path d="M31 43c3-9 10-14 20-13" fill="none" stroke="#34A853" stroke-width="8" stroke-linecap="round"/>
  <path d="M65 38c7 0 13 6 13 14" fill="none" stroke="#FBBC05" stroke-width="8" stroke-linecap="round"/>
  <path d="M36 66H27" fill="none" stroke="#EA4335" stroke-width="8" stroke-linecap="round"/>
</svg>
