<svg xmlns="http://www.w3.org/2000/svg" viewBox="0 0 96 96">
  <rect width="96" height="96" rx="16" fill="#F46800"/>
  <circle cx="48" cy="48" r="5" fill="#fff"/>
  <path d="M48 25c14 0 25 11 25 24 0 14-11 24-25 24-11 0-20-7-23-17" fill="none" stroke="#fff" stroke-width="7" stroke-linecap="round"/>
  <path d="M48 36c8 0 14 6 14 13 0 8-6 13-14 13-6 0-11-4-12-10" fill="none" stroke="#fff" stroke-width="6" stroke-linecap="round"/>
  <path d="M48 45c4 0 6 2 6 5s-2 5-6 5" fill="none" stroke="#fff" stroke-width="5" stroke-linecap="round"/>
  <circle cx="32" cy="31" r="5" fill="#fff"/>
</svg>
