<svg xmlns="http://www.w3.org/2000/svg" viewBox="0 0 96 96">
  <rect width="96" height="96" rx="16" fill="#336791"/>
  <path d="M28 29c5-8 17-12 29-8 11 4 18 15 15 29-2 9-8 17-17 20-9 3-20 1-26-6-8-9-8-25-1-35Z" fill="#fff"/>
  <path d="M38 39c4-4 15-5 21 0 5 5 5 18-1 24-5 5-16 5-21 0-6-6-5-19 1-24Z" fill="#336791"/>
  <circle cx="41" cy="47" r="3" fill="#fff"/>
  <circle cx="56" cy="47" r="3" fill="#fff"/>
  <path d="M60 56c6 2 11 6 14 12M49 64c0 5-2 9-6 12" fill="none" stroke="#fff" stroke-width="5" stroke-linecap="round"/>
  <path d="M64 36c4 6 5 13 2 21" fill="none" stroke="#336791" stroke-width="4" stroke-linecap="round"/>
</svg>
